<?xml version="1.0" standalone="no"?>
<!DOCTYPE svg PUBLIC "-//W3C//DTD SVG 20010904//EN"
 "http://www.w3.org/TR/2001/REC-SVG-20010904/DTD/svg10.dtd">
<svg version="1.0" xmlns="http://www.w3.org/2000/svg"
 width="196.000000pt" height="137.000000pt" viewBox="0 0 196.000000 137.000000"
 preserveAspectRatio="xMidYMid meet">

<g transform="translate(0.000000,137.000000) scale(0.100000,-0.100000)"
fill="#000000" stroke="none">
<path d="M1631 1209 c-447 -34 -842 -174 -1100 -389 l-64 -54 -51 19 c-28 9
-58 20 -66 22 -8 2 16 -25 55 -61 l70 -65 85 83 c97 94 168 145 290 206 248
125 487 184 960 238 l75 9 -75 0 c-41 0 -122 -3 -179 -8z"/>
<path d="M420 856 c0 -61 1 -64 26 -70 36 -9 64 17 64 61 0 53 -15 73 -55 73
l-35 0 0 -64z"/>
<path d="M167 756 c-51 -19 -75 -42 -87 -85 -15 -53 -12 -91 9 -138 25 -54 67
-76 143 -76 65 1 107 21 132 64 l17 29 -44 0 c-27 0 -49 -6 -57 -15 -20 -24
-86 -19 -104 7 -20 29 -20 107 0 136 18 27 78 30 105 6 11 -10 31 -14 60 -12
l42 3 -28 33 c-15 18 -35 36 -44 41 -32 18 -105 21 -144 7z"/>
<path d="M677 756 c-50 -18 -64 -32 -72 -66 -12 -56 23 -87 128 -110 69 -16
91 -35 62 -56 -29 -22 -73 -17 -101 11 -34 34 -94 36 -94 3 1 -54 51 -81 146
-81 84 1 128 21 144 66 22 64 -9 96 -112 118 -64 14 -88 25 -88 43 0 31 66 35
103 6 33 -26 87 -27 87 -2 0 27 -42 62 -87 73 -51 11 -71 11 -116 -5z"/>
<path d="M420 598 c0 -80 4 -119 13 -126 6 -5 38 -13 70 -17 l57 -7 0 30 c0
24 -5 31 -22 34 -22 3 -23 8 -26 91 -3 87 -7 98 -30 75 -9 -9 -17 -6 -37 12
l-25 23 0 -115z"/>
<path d="M1410 536 c0 -39 4 -65 9 -61 5 3 12 1 16 -5 3 -5 16 -9 28 -9 20 1
21 2 2 6 -35 9 -43 23 -43 75 -1 27 -3 53 -6 56 -3 3 -6 -25 -6 -62z"/>
<path d="M1223 530 c0 -36 2 -50 4 -32 2 17 2 47 0 65 -2 17 -4 3 -4 -33z"/>
<path d="M1156 541 c-4 -5 -3 -16 0 -25 8 -21 -13 -46 -40 -47 -11 0 -15 -3
-8 -6 7 -3 20 -1 30 3 9 4 20 7 23 6 3 0 6 17 5 39 -1 41 -2 44 -10 30z"/>
<path d="M1279 533 c-13 -16 -12 -17 4 -4 16 13 21 21 13 21 -2 0 -10 -8 -17
-17z"/>
<path d="M1359 543 c-1 -5 0 -17 0 -29 2 -23 -13 -39 -44 -47 -19 -4 -18 -5 2
-6 12 0 25 4 28 9 4 6 11 8 16 5 5 -4 9 12 9 34 0 23 -2 41 -5 41 -3 0 -5 -3
-6 -7z"/>
<path d="M1480 546 c0 -2 8 -10 18 -17 15 -13 16 -12 3 4 -13 16 -21 21 -21
13z"/>
<path d="M1559 533 c-13 -16 -12 -17 4 -4 16 13 21 21 13 21 -2 0 -10 -8 -17
-17z"/>
<path d="M1639 543 c-1 -5 0 -17 0 -29 2 -23 -13 -39 -44 -47 -19 -4 -18 -5 2
-6 12 0 25 4 28 9 4 6 11 8 16 5 5 -4 9 12 9 34 0 23 -2 41 -5 41 -3 0 -5 -3
-6 -7z"/>
<path d="M1694 539 c-3 -6 -2 -15 3 -20 5 -5 9 -1 9 11 0 23 -2 24 -12 9z"/>
<path d="M1861 533 c7 -12 15 -20 18 -17 3 2 -3 12 -13 22 -17 16 -18 16 -5
-5z"/>
<path d="M1780 509 c0 -21 32 -49 56 -48 14 1 13 3 -6 8 -14 4 -30 18 -37 31
-8 16 -13 19 -13 9z"/>
<path d="M1270 491 c0 -6 4 -13 10 -16 6 -3 7 1 4 9 -7 18 -14 21 -14 7z"/>
<path d="M1496 483 c-6 -14 -5 -15 5 -6 7 7 10 15 7 18 -3 3 -9 -2 -12 -12z"/>
<path d="M1550 491 c0 -6 4 -13 10 -16 6 -3 7 1 4 9 -7 18 -14 21 -14 7z"/>
<path d="M1698 468 c5 -5 16 -8 23 -6 8 3 3 7 -10 11 -17 4 -21 3 -13 -5z"/>
<path d="M968 463 c7 -3 16 -2 19 1 4 3 -2 6 -13 5 -11 0 -14 -3 -6 -6z"/>
<path d="M678 310 c-2 -22 0 -40 4 -40 5 0 8 18 8 40 0 22 -2 40 -4 40 -2 0
-6 -18 -8 -40z"/>
<path d="M90 287 c0 -32 2 -36 14 -25 9 9 11 17 4 25 -15 18 1 35 28 30 13 -2
21 0 18 5 -3 4 -19 7 -35 6 -27 -2 -29 -5 -29 -41z"/>
<path d="M191 317 c-12 -16 -5 -47 11 -47 6 0 5 6 -2 15 -6 8 -9 19 -5 25 8
13 42 13 48 0 3 -6 4 -5 3 2 -4 19 -41 22 -55 5z"/>
<path d="M309 307 c-9 -20 -15 -24 -21 -15 -5 9 -8 10 -8 1 0 -22 19 -24 31
-2 9 17 13 19 20 8 5 -8 9 -9 9 -4 0 6 -4 17 -9 24 -8 12 -12 10 -22 -12z"/>
<path d="M365 319 c-4 -6 -5 -12 -2 -15 2 -3 7 2 10 11 7 17 1 20 -8 4z"/>
<path d="M402 318 c-14 -14 -16 -35 -3 -42 5 -4 7 3 4 14 -7 25 21 37 45 19
15 -13 16 -12 3 4 -16 20 -32 22 -49 5z"/>
<path d="M481 295 c1 -20 3 -24 6 -10 3 11 12 25 20 32 13 10 12 12 -6 10 -17
-1 -21 -7 -20 -32z"/>
<path d="M546 322 c-4 -6 3 -8 15 -5 12 4 25 0 31 -8 8 -12 9 -11 5 1 -4 17
-42 26 -51 12z"/>
<path d="M630 315 c-14 -17 -7 -45 12 -44 10 0 10 2 1 6 -21 8 -15 33 10 43
15 6 17 9 6 9 -9 1 -22 -6 -29 -14z"/>
<path d="M808 320 c12 -5 22 -15 22 -21 0 -7 3 -9 6 -6 10 10 -16 37 -35 36
-11 0 -9 -3 7 -9z"/>
<path d="M850 321 c0 -6 4 -13 10 -16 6 -3 7 1 4 9 -7 18 -14 21 -14 7z"/>
<path d="M898 305 c-6 -13 -15 -22 -21 -18 -6 4 -7 1 -2 -7 5 -8 1 -18 -11
-28 -12 -9 -14 -13 -4 -10 15 4 67 88 56 88 -4 0 -11 -11 -18 -25z"/>
<path d="M770 280 c0 -5 5 -10 11 -10 5 0 7 5 4 10 -3 6 -8 10 -11 10 -2 0 -4
-4 -4 -10z"/>
<path d="M864 151 l-112 -96 76 -3 c91 -4 120 15 120 76 0 28 7 43 32 65 18
16 30 29 28 31 -1 1 -10 6 -18 12 -12 9 -38 -9 -126 -85z"/>
<path d="M1113 230 l-21 -17 32 -17 c21 -11 39 -14 54 -9 21 8 21 9 -11 34
-31 25 -34 26 -54 9z"/>
<path d="M1002 188 c-22 -11 -39 -49 -33 -78 9 -44 73 -70 125 -50 23 8 26 13
16 25 -9 11 -17 12 -32 4 -30 -16 -68 4 -68 35 0 34 23 49 64 42 39 -8 56 8
27 23 -25 14 -69 13 -99 -1z"/>
<path d="M1420 125 l0 -75 65 0 c50 0 65 3 65 14 0 11 -14 16 -47 18 -60 4
-72 28 -14 28 55 0 58 27 4 32 -54 4 -47 22 10 26 33 2 47 7 47 18 0 11 -15
14 -65 14 l-65 0 0 -75z"/>
<path d="M1840 125 c0 -68 2 -75 20 -75 18 0 20 7 20 75 0 68 -2 75 -20 75
-18 0 -20 -7 -20 -75z"/>
<path d="M1140 150 c-11 -11 -20 -29 -20 -40 0 -44 69 -76 109 -51 19 12 5 30
-19 24 -11 -3 -28 -2 -37 3 -13 6 -7 9 26 13 51 7 61 21 32 50 -27 27 -65 27
-91 1z m70 -20 c0 -5 -12 -10 -26 -10 -14 0 -23 4 -19 10 3 6 15 10 26 10 10
0 19 -4 19 -10z"/>
<path d="M1260 109 c0 -52 2 -59 20 -59 16 0 20 7 20 34 0 35 21 63 40 51 5
-3 10 -24 10 -46 0 -32 3 -39 20 -39 17 0 20 7 20 50 0 58 -11 67 -82 68 l-48
0 0 -59z"/>
<path d="M1560 161 c0 -5 7 -14 15 -21 8 -7 15 -20 15 -30 0 -10 -7 -23 -15
-30 -21 -17 -19 -30 4 -30 11 0 26 9 35 21 l14 21 11 -21 c7 -12 21 -21 31
-21 24 0 25 8 3 32 -14 16 -14 22 -2 46 7 15 15 30 17 35 9 19 -39 4 -49 -15
l-12 -22 -15 22 c-14 21 -52 31 -52 13z"/>
<path d="M1722 154 c-26 -18 -30 -65 -6 -88 25 -25 108 -19 98 8 -3 7 -18 10
-39 8 -21 -3 -35 0 -35 7 0 6 17 11 40 11 33 0 40 3 40 19 0 45 -55 65 -98 35z
m63 -24 c4 -6 -5 -10 -19 -10 -14 0 -26 5 -26 10 0 6 9 10 19 10 11 0 23 -4
26 -10z"/>
</g>
</svg>
